# xmcd
#
# Track frame offsets:
#	150
#	15043
#	27958
#	42104
#	56912
#	69660
#	84553
#	100286
#	114029
#	135331
#	147350
#
# Disc length: 2165 seconds
#
# Revision: 0
# Processed by: cddbd v1.5.2PL0 Copyright (c) Steve Scherf et al.
# Submitted via: dBpowerAMP V4.0
#
DISCID=8508730b
DTITLE=Conjunto San Antonio - Pa' todo el año
DYEAR=1900
DGENRE=
TTITLE0=Voy pensando
TTITLE1=Pa' todo el año
TTITLE2=Mentiste cuando dijiste
TTITLE3=Jambalaya
TTITLE4=Corazón contento
TTITLE5=Margarita
TTITLE6=They call me a playboy
TTITLE7=El hijo de su
TTITLE8=Matador
TTITLE9=El gavilán pollero
TTITLE10=Pa' aquí pa' allá
EXTD=Música Conjunto desde Badajoz (Spain)
EXTT0=
EXTT1=
EXTT2=
EXTT3=
EXTT4=
EXTT5=
EXTT6=
EXTT7=
EXTT8=
EXTT9=
EXTT10=
PLAYORDER=
